# xmcd
#
# Track frame offsets:
#	150
#	27755
#	50768
#	72045
#	98262
#	126507
#	138888
#
# Disc length: 2011 seconds
#
# Revision: 1
# Processed by: cddbd v1.5.1PL0 Copyright (c) Steve Scherf et al.
# Submitted via: CDex 1.50Beta5
#
DISCID=5707d907
DTITLE=天地無用！ - ラヂオ天地Special Issue２
DYEAR=1900
DGENRE=Unclassifiable
TTITLE0=山田西南の人生後悔日誌#6「ちち親のアレが・・・」
TTITLE1=山田西南の人生後悔日誌#7「ティッシュ全開・汗ダラダラ」
TTITLE2=山田西南の人生後悔日誌#8「カッコイイとこ見せちゃお！？」
TTITLE3=山田西南の人生後悔日誌#9「放送直前大盤ぶるまい・イベント」
TTITLE4=山田西南の人生後悔日誌#10「もぎもぎ・19・スポーツマン？！」
TTITLE5=雨音・カウナックの色恋指南「三股の選択」
TTITLE6=雨音・カウナックの色恋指南「４人共好き」
EXTD=
EXTT0=
EXTT1=
EXTT2=
EXTT3=
EXTT4=
EXTT5=
EXTT6=
PLAYORDER=
